# xmcd
#
# Track frame offsets:
#	150
#	11804
#	22815
#	33348
#	44712
#	55919
#	65943
#	76790
#	87605
#	98232
#	110458
#	123076
#	133413
#	144816
#	154777
#	165388
#	177144
#	191337
#	202411
#	215820
#	224801
#	234731
#	246447
#	258328
#	268595
#	278807
#	289842
#	299772
#	311042
#	320972
#
# Disc length: 4427 seconds
# Revision: 0
# Processed by: cddbd v1.5.2PL0 Copyright (c) Steve Scherf et al.
# Submitted via: dBpowerAMP V12.0
#
DISCID=e211491e
DTITLE=Various Artist - Right Or Wrong, Disc 1
DYEAR=1954
DGENRE=Pop\Rock*
TTITLE0=Wanda Jackson - If You Knew What I Know
TTITLE1=Wanda Jackson - Lovin' Country Style
TTITLE2=Wanda Jackson - The Heart You Could Have Had
TTITLE3=Wanda Jackson - The Right To Love
TTITLE4=Wanda Jackson with Billy Gray - You Can't Have My Love
TTITLE5=Wanda Jackson with Billy Gray - If You Don't, Somebody Else Will
TTITLE6=Wanda Jackson - You'd Be The First One To Know
TTITLE7=Wanda Jackson - It's The Same World {Wherever You Go}
TTITLE8=Wanda Jackson - Tears At The Grand Ole Opry
TTITLE9=Wanda Jackson - Don't Do The Things He'd Do
TTITLE10=Wanda Jackson - Nobody's Darlin' But Mine
TTITLE11=Wanda Jackson - Wasted
TTITLE12=Wanda Jackson - I Cried Again
TTITLE13=Wanda Jackson - I'd Rather Have A Broken Heart
TTITLE14=Wanda Jackson - You Won't Forget {About Me}
TTITLE15=Wanda Jackson - Step By Step
TTITLE16=Wanda Jackson - Half As Good A Girl
TTITLE17=Wanda Jackson - I Gotta Know
TTITLE18=Wanda Jackson - Cryin' Thru The Night
TTITLE19=Wanda Jackson - Baby Loves Him
TTITLE20=Wanda Jackson - Honey Bop
TTITLE21=Wanda Jackson - Silver Threads And Golden Needles
TTITLE22=Wanda Jackson - Hot Dog! That Made Him Mad
TTITLE23=Wanda Jackson - Did You Miss Me
TTITLE24=Wanda Jackson - Cool Love
TTITLE25=Wanda Jackson - Let Me Explain
TTITLE26=Wanda Jackson - Don'a Wan'a
TTITLE27=Wanda Jackson - No Wedding Bells For Joe
TTITLE28=Wanda Jackson - Fujiyama Mama
TTITLE29=Wanda Jackson - Just Queen For A Day
EXTD=
EXTT0=
EXTT1=
EXTT2=
EXTT3=
EXTT4=
EXTT5=
EXTT6=
EXTT7=
EXTT8=
EXTT9=
EXTT10=
EXTT11=
EXTT12=
EXTT13=
EXTT14=
EXTT15=
EXTT16=
EXTT17=
EXTT18=
EXTT19=
EXTT20=
EXTT21=
EXTT22=
EXTT23=
EXTT24=
EXTT25=
EXTT26=
EXTT27=
EXTT28=
EXTT29=
PLAYORDER=
